HIERARCHY
ROOT Hips
{
	OFFSET -0.179506 -22.333345 2.821913
	CHANNELS 6 Xposition Yposition Zposition Zrotation Yrotation Xrotation 
	JOINT LeftUpLeg
	{
		OFFSET 6.951974 -9.140623 -0.681533
		CHANNELS 3 Zrotation Yrotation Xrotation
		JOINT LeftLeg
		{
			OFFSET 3.427654 -37.519855 -0.449580
			CHANNELS 3 Zrotation Yrotation Xrotation
			JOINT LeftFoot
			{
				OFFSET -1.359570 -39.796059 -4.369333
				CHANNELS 3 Zrotation Yrotation Xrotation
				JOINT LeftToe
				{
					OFFSET 2.635814 -5.579078 11.928840
					CHANNELS 3 Zrotation Yrotation Xrotation
					End Site
					{
						OFFSET 0.000000 0.000000 0.000000
					}
				}
			}
		}
	}
	JOINT RightUpLeg
	{
		OFFSET -6.767048 -9.052170 -0.431982
		CHANNELS 3 Zrotation Yrotation Xrotation
		JOINT RightLeg
		{
			OFFSET -3.829005 -38.256897 -0.885003
			CHANNELS 3 Zrotation Yrotation Xrotation
			JOINT RightFoot
			{
				OFFSET 1.577377 -39.841461 -4.231180
				CHANNELS 3 Zrotation Yrotation Xrotation
				JOINT RightToe
				{
					OFFSET -2.537174 -4.814398 12.334795
					CHANNELS 3 Zrotation Yrotation Xrotation
					End Site
					{
						OFFSET 0.000000 0.000000 0.000000
					}
				}
			}
		}
	}
	JOINT Spine
	{
		OFFSET -0.253288 10.896323 -2.669631
		CHANNELS 3 Zrotation Yrotation Xrotation
		JOINT Spine1
		{
			OFFSET 0.548704 13.518043 0.109247
			CHANNELS 3 Zrotation Yrotation Xrotation
			JOINT Spine2
			{
				OFFSET 0.145701 5.292222 2.542457
				CHANNELS 3 Zrotation Yrotation Xrotation
				JOINT Neck
				{
					OFFSET -0.277840 21.387037 -4.285703
					CHANNELS 3 Zrotation Yrotation Xrotation
					JOINT Head
					{
						OFFSET 0.515184 6.496960 5.134897
						CHANNELS 3 Zrotation Yrotation Xrotation
						End Site
						{
							OFFSET 0.000000 0.000000 0.000000
						}
					}
				}
				JOINT LeftShoulder
				{
					OFFSET 7.884473 12.174932 -3.408961
					CHANNELS 3 Zrotation Yrotation Xrotation
					JOINT LeftArm
					{
						OFFSET 9.097692 3.046888 -0.886815
						CHANNELS 3 Zrotation Yrotation Xrotation
						JOINT LeftForeArm
						{
							OFFSET 25.961220 -1.277207 -2.745643
							CHANNELS 3 Zrotation Yrotation Xrotation
							JOINT LeftHand
							{
								OFFSET 24.923361 0.898606 -0.117091
								CHANNELS 3 Zrotation Yrotation Xrotation
								End Site
								{
									OFFSET 0.000000 0.000000 0.000000
								}
							}
						}
					}
				}
				JOINT RightShoulder
				{
					OFFSET -8.175920 11.883285 -3.861528
					CHANNELS 3 Zrotation Yrotation Xrotation
					JOINT RightArm
					{
						OFFSET -9.601238 3.255117 -0.914307
						CHANNELS 3 Zrotation Yrotation Xrotation
						JOINT RightForeArm
						{
							OFFSET -25.374195 -1.332924 -2.140099
							CHANNELS 3 Zrotation Yrotation Xrotation
							JOINT RightHand
							{
								OFFSET -25.529810 0.777228 -0.555919
								CHANNELS 3 Zrotation Yrotation Xrotation
								End Site
								{
									OFFSET 0.000000 0.000000 0.000000
								}
							}
						}
					}
				}
			}
		}
	}
}
MOTION
Frames: 13
Frame Time: 0.033333
134.557602 115.284355 7.376949 178.209691 3.405115 177.268015 15.499579 9.958991 3.181266 -10.982545 -6.392731 13.606639 -6.118756 2.974228 -20.736190 nan nan nan -17.140170 -4.354253 -2.766223 7.363286 11.197329 13.915166 13.576176 8.025586 -0.311528 nan nan nan 1.412297 -0.643484 -1.258981 -2.470177 -2.903329 1.118826 -0.998793 1.593366 -0.029997 -2.664813 8.468742 -1.955196 2.640028 -4.831031 -32.934177 6.626407 -8.364838 -8.729310 2.234667 -3.807067 -19.724059 111.045029 -39.786539 -99.027722 27.941770 -27.778677 -20.814945 -11.512373 16.011222 -3.034876 -10.521987 9.691864 -38.140349 -99.474541 50.176522 -93.181532 -24.584297 21.018516 -18.235233 
134.554306 115.293678 7.380211 178.195750 3.377636 177.242253 15.487325 9.948132 3.201382 -10.975232 -6.380692 13.610633 -6.065854 2.963436 -20.754910 nan nan nan -17.155602 -4.384206 -2.742864 7.363941 11.189668 13.937750 13.505674 8.013084 -0.307330 nan nan nan 1.390954 -0.661976 -1.144109 -2.457045 -2.935075 0.971132 -0.987515 1.607717 -0.011304 -2.683292 8.356496 -1.847968 2.751487 -4.790287 -32.993945 6.600729 -8.376844 -8.750574 2.293746 -3.815853 -19.723562 111.016216 -39.788233 -99.099266 27.548304 -27.607540 -20.825109 -11.474286 16.034429 -3.073084 -10.575798 9.677267 -38.169849 -99.483817 50.295662 -93.199922 -24.173415 20.933387 -18.124585 
134.489517 115.191811 7.313488 178.209044 3.137821 177.861583 15.696167 9.155530 2.784733 -11.290039 -4.763605 13.162986 -6.390706 1.815447 -20.244936 nan nan nan -17.448584 -4.035066 -3.036271 7.433097 9.611938 13.660137 13.791141 9.684479 1.201307 nan nan nan 0.897790 0.183642 -0.610907 -1.730629 -2.387286 -1.144772 -1.424845 0.424437 -0.970333 -1.135133 9.758534 1.039408 2.486242 -5.802721 -32.558737 9.558803 -7.042317 -9.203676 -2.008502 -7.627203 -18.249457 110.501654 -39.518483 -96.447035 8.468834 -31.061367 -18.190593 -14.252660 13.517710 -8.800538 -3.643173 15.996496 -33.898464 -98.507577 52.112724 -88.246782 -3.193543 22.919591 -16.778776 
134.470764 115.157394 7.336177 178.238542 3.282426 178.110278 15.653321 9.422586 2.582991 -11.246015 -4.984993 13.129006 -6.874451 1.971393 -20.115808 nan nan nan -17.619710 -3.339783 -3.271121 8.408639 12.312528 15.467714 15.257410 11.947601 -8.013914 nan nan nan 1.151605 0.362035 -1.009005 -2.030577 -2.689658 -0.847957 -1.374945 0.452423 -1.059943 -2.088040 8.830859 0.814712 3.524428 -4.543058 -32.490792 9.577652 -7.200307 -9.393358 -1.757862 -6.882068 -17.829401 110.514219 -39.197775 -96.313647 8.249562 -30.819905 -17.777612 -14.499515 13.703117 -8.889861 -3.326334 16.163160 -33.434244 -98.486456 51.555586 -88.164612 -3.802873 23.307767 -16.824453 
134.472092 115.134598 7.347562 178.260249 3.270578 178.183682 15.641963 9.408424 2.517337 -11.225418 -4.948631 13.090640 -6.999965 2.053521 -19.956836 nan nan nan -17.562411 -3.328098 -3.336927 8.368743 12.382341 15.475446 15.483224 11.846533 -8.092120 nan nan nan 1.124584 0.335296 -1.111278 -2.040319 -2.733418 -0.874713 -1.366470 0.432364 -0.922010 -1.985186 8.823768 0.471103 3.638093 -4.384406 -32.216532 9.652395 -7.116912 -9.444643 -1.753470 -6.689810 -17.835477 110.566808 -39.199963 -96.097928 9.454606 -31.046293 -17.889929 -14.527211 13.599734 -8.836123 -3.263094 16.197249 -33.393102 -98.709122 51.620031 -88.421878 -4.830069 23.298493 -17.174912 
134.003876 115.181023 7.880748 178.349536 0.778237 177.493306 15.116364 7.126245 1.468742 -11.099906 -5.485001 13.998367 -7.110764 2.397662 -19.748615 nan nan nan -18.048902 -4.474737 -2.000243 8.813060 11.939020 15.200298 15.849097 11.198423 -8.093406 nan nan nan 1.685257 0.240777 1.732451 -2.090580 -3.789981 -3.202117 -1.490092 -0.308187 0.187805 -2.064981 8.155482 -1.441392 3.478345 -4.390538 -31.326445 10.216354 -6.703990 -9.924953 -3.153781 -7.956451 -17.788547 110.532164 -38.692148 -95.267897 12.165352 -31.397501 -17.668167 -15.187085 12.290911 -10.014749 -2.950194 16.411751 -32.931862 -98.590429 51.866998 -88.848719 -5.620895 23.515143 -17.426679 
134.032333 115.163399 7.890392 178.342127 0.919898 177.504272 15.240899 7.033721 1.650136 -11.256728 -5.088713 13.681851 -7.518563 2.124717 -19.465969 nan nan nan -18.033695 -4.378034 -2.178204 8.783690 11.767034 15.391447 16.222707 11.482076 -8.189213 nan nan nan 1.704626 0.350446 1.629015 -2.028566 -3.942004 -2.605762 -1.672744 -0.523049 -0.381886 -1.825719 8.874459 -1.493336 3.574847 -4.644631 -31.269090 10.419855 -6.552225 -9.699296 -3.163800 -6.732557 -17.700657 110.691709 -38.778762 -95.443312 -1.081756 -32.812912 -15.754071 -15.329424 12.403223 -10.049317 -2.414551 16.977728 -32.662201 -98.964938 50.899636 -88.816420 -0.330588 23.460317 -15.731976 
133.966141 115.149765 7.889814 178.398410 0.789143 177.504602 15.245541 6.899316 1.623731 -11.277486 -5.124601 13.648443 -7.485394 2.163745 -19.413363 nan nan nan -18.031791 -4.514207 -2.150017 8.802300 11.739437 15.400862 16.252656 11.556107 -8.196012 nan nan nan 1.840122 0.345717 1.564054 -2.042247 -3.945024 -2.632514 -1.727306 -0.547019 -0.180614 -1.786695 8.866039 -1.656070 3.484063 -4.757570 -31.225547 10.627241 -6.394774 -9.792624 -3.633831 -7.004724 -17.804726 110.692801 -38.631573 -95.077719 -0.972182 -32.377468 -15.197189 -15.447851 12.171934 -10.135351 -2.309796 17.023226 -32.659767 -99.130644 50.915862 -88.874354 -0.262365 23.435208 -15.667293 
133.950623 115.131569 7.904322 178.424870 0.764593 177.547385 15.276315 6.912497 1.565664 -11.320413 -5.131332 13.670068 -7.493601 2.171579 -19.385997 nan nan nan -17.989050 -4.550250 -2.221766 8.793649 11.762746 15.458124 16.212170 11.586854 -8.269411 nan nan nan 1.856977 0.356679 1.424809 -2.057730 -3.937388 -2.488827 -1.763162 -0.573529 -0.151566 -1.715868 8.952000 -1.790064 3.402608 -4.817745 -31.098733 10.708809 -6.336514 -9.801224 -3.642061 -6.991561 -17.973269 110.858708 -38.568893 -94.849739 -1.456058 -32.167972 -14.399555 -15.435421 12.065324 -10.138220 -2.244015 17.076495 -32.684628 -99.257765 50.827003 -88.831164 -0.258420 23.344346 -15.619099 
133.862549 115.108612 7.900871 178.493917 0.532066 177.625547 15.256230 6.792992 1.361563 -11.257103 -5.149166 13.720650 -7.276413 2.263518 -19.439328 nan nan nan -18.003623 -4.743150 -2.226273 8.850105 11.729522 15.419999 16.245718 11.612814 -8.254042 nan nan nan 2.076053 0.350545 1.300164 -2.082345 -3.997061 -2.606444 -1.843330 -0.608915 0.088028 -1.838555 8.793648 -1.865124 3.370146 -4.770746 -31.055687 10.838004 -6.299932 -9.778284 -3.883015 -7.058914 -17.951190 110.745160 -38.728634 -94.791478 -0.523053 -32.200552 -15.505538 -15.586768 11.870485 -10.206713 -2.172139 17.028710 -32.755861 -99.307876 50.974863 -88.939732 -0.739407 23.277807 -15.815616 
133.853119 115.103241 7.907248 178.488203 0.537311 177.597050 15.240603 6.777654 1.392011 -11.188408 -5.097471 13.695258 -7.028454 2.378585 -19.487176 nan nan nan -17.991163 -4.727117 -2.217622 8.825319 11.735156 15.416406 16.245321 11.610897 -8.274326 nan nan nan 2.078645 0.328892 1.365672 -2.086791 -4.005978 -2.716168 -1.860039 -0.593686 0.153560 -1.834688 8.865777 -1.822167 3.403401 -4.795014 -31.102817 10.925593 -6.246391 -9.860683 -3.805350 -7.044622 -17.905490 110.788648 -38.803023 -95.000286 -0.442889 -32.613807 -16.447574 -15.626545 11.830715 -10.273759 -2.085736 17.035207 -32.683089 -99.351645 51.001979 -88.992257 -0.715923 23.301190 -15.946488 
133.829056 115.138168 7.924070 178.496727 0.472709 177.547376 15.258678 6.578923 1.467288 -11.240291 -5.182672 13.572132 -7.242273 2.564196 -19.402751 nan nan nan -18.014642 -4.771154 -2.179555 8.784597 11.568959 15.382280 16.785449 11.844762 -8.093244 nan nan nan 1.955587 0.532459 1.440726 -1.785506 -4.071887 -3.101008 -1.701155 -1.079431 0.792763 -2.144117 9.088294 -2.231713 3.116706 -4.937581 -31.316901 11.595028 -6.348104 -8.327759 -5.368100 -5.580742 -18.998635 111.794921 -37.762767 -96.277494 -0.979272 -33.164577 -16.713975 -16.287736 11.764397 -10.736903 -1.651856 17.316206 -32.951128 -99.433055 51.178063 -89.059745 -0.428652 23.522988 -15.779722 
133.846619 115.133652 7.938753 178.485801 0.557339 177.495426 15.294101 6.634616 1.578886 -11.286793 -5.182286 13.511690 -7.400550 2.511795 -19.329775 nan nan nan -18.024135 -4.739905 -2.208066 8.786943 11.519926 15.446932 16.777864 11.943840 -8.126217 nan nan nan 1.917346 0.544761 1.506705 -1.777780 -4.044504 -3.054528 -1.673893 -1.082912 0.640615 -2.142801 9.048462 -1.910508 3.007167 -4.921745 -31.442808 11.465454 -6.242374 -8.235976 -5.279914 -5.599342 -19.085249 111.683048 -37.749058 -96.241686 -1.854948 -33.110614 -16.201817 -16.309844 11.734168 -10.700670 -1.587960 17.459096 -32.971360 -99.406614 51.092584 -88.883609 -0.105649 23.489352 -15.650999 
